<svg width="113" height="45" viewBox="0 0 113 45" fill="none" xmlns="http://www.w3.org/2000/svg">
<rect x="0.5" y="0.5" width="112" height="44" rx="6.5" fill="white"/>
<path d="M30.4893 19.9714H28.0007C27.9553 19.6494 27.8625 19.3635 27.7223 19.1135C27.5822 18.8597 27.4022 18.6438 27.1825 18.4657C26.9628 18.2877 26.709 18.1513 26.4212 18.0566C26.1371 17.9619 25.8284 17.9146 25.495 17.9146C24.8928 17.9146 24.3681 18.0642 23.9212 18.3635C23.4742 18.6589 23.1276 19.0907 22.8814 19.6589C22.6352 20.2233 22.5121 20.9089 22.5121 21.7157C22.5121 22.5453 22.6352 23.2422 22.8814 23.8066C23.1314 24.371 23.4799 24.7972 23.9268 25.085C24.3738 25.3729 24.8909 25.5169 25.478 25.5169C25.8075 25.5169 26.1125 25.4733 26.3928 25.3862C26.6768 25.2991 26.9287 25.1722 27.1484 25.0055C27.3681 24.835 27.55 24.6286 27.6939 24.3862C27.8416 24.1438 27.9439 23.8672 28.0007 23.5566L30.4893 23.568C30.425 24.1021 30.264 24.6172 30.0064 25.1135C29.7526 25.6059 29.4098 26.0472 28.978 26.4373C28.55 26.8237 28.0386 27.1305 27.4439 27.3578C26.853 27.5813 26.1844 27.693 25.4382 27.693C24.4003 27.693 23.4723 27.4581 22.6541 26.9885C21.8397 26.5188 21.1958 25.8388 20.7223 24.9487C20.2526 24.0585 20.0178 22.9809 20.0178 21.7157C20.0178 20.4468 20.2564 19.3672 20.7337 18.4771C21.2109 17.5869 21.8587 16.9089 22.6768 16.443C23.495 15.9733 24.4155 15.7385 25.4382 15.7385C26.1125 15.7385 26.7375 15.8331 27.3132 16.0225C27.8928 16.2119 28.406 16.4885 28.853 16.8521C29.3 17.2119 29.6636 17.6532 29.9439 18.176C30.228 18.6987 30.4098 19.2972 30.4893 19.9714ZM36.1513 27.7044C35.2687 27.7044 34.5054 27.5169 33.8615 27.1419C33.2214 26.7631 32.727 26.2366 32.3786 25.5623C32.0301 24.8843 31.8558 24.0983 31.8558 23.2044C31.8558 22.3028 32.0301 21.515 32.3786 20.8407C32.727 20.1627 33.2214 19.6362 33.8615 19.2612C34.5054 18.8824 35.2687 18.693 36.1513 18.693C37.0339 18.693 37.7952 18.8824 38.4354 19.2612C39.0793 19.6362 39.5755 20.1627 39.924 20.8407C40.2725 21.515 40.4467 22.3028 40.4467 23.2044C40.4467 24.0983 40.2725 24.8843 39.924 25.5623C39.5755 26.2366 39.0793 26.7631 38.4354 27.1419C37.7952 27.5169 37.0339 27.7044 36.1513 27.7044ZM36.1626 25.8294C36.5642 25.8294 36.8994 25.7157 37.1683 25.4885C37.4373 25.2574 37.6399 24.943 37.7763 24.5453C37.9164 24.1475 37.9865 23.6949 37.9865 23.1873C37.9865 22.6797 37.9164 22.2271 37.7763 21.8294C37.6399 21.4316 37.4373 21.1172 37.1683 20.8862C36.8994 20.6551 36.5642 20.5396 36.1626 20.5396C35.7573 20.5396 35.4164 20.6551 35.1399 20.8862C34.8672 21.1172 34.6607 21.4316 34.5206 21.8294C34.3842 22.2271 34.3161 22.6797 34.3161 23.1873C34.3161 23.6949 34.3842 24.1475 34.5206 24.5453C34.6607 24.943 34.8672 25.2574 35.1399 25.4885C35.4164 25.7157 35.7573 25.8294 36.1626 25.8294ZM45.2365 27.676C44.5736 27.676 43.9732 27.5055 43.4354 27.1646C42.9013 26.8199 42.477 26.3142 42.1626 25.6475C41.852 24.9771 41.6967 24.1551 41.6967 23.1816C41.6967 22.1816 41.8577 21.3502 42.1797 20.6873C42.5017 20.0206 42.9297 19.5225 43.4638 19.193C44.0017 18.8597 44.5907 18.693 45.2308 18.693C45.7195 18.693 46.1267 18.7763 46.4524 18.943C46.782 19.1059 47.0471 19.3104 47.2479 19.5566C47.4524 19.7991 47.6077 20.0377 47.7138 20.2725H47.7876V15.8975H50.2024V27.5339H47.8161V26.1362H47.7138C47.6001 26.3786 47.4392 26.6191 47.2308 26.8578C47.0263 27.0926 46.7592 27.2877 46.4297 27.443C46.1039 27.5983 45.7062 27.676 45.2365 27.676ZM46.0036 25.7498C46.3937 25.7498 46.7232 25.6438 46.9922 25.4316C47.2649 25.2157 47.4732 24.9146 47.6172 24.5282C47.7649 24.1419 47.8388 23.6892 47.8388 23.1703C47.8388 22.6513 47.7668 22.2006 47.6229 21.818C47.4789 21.4354 47.2706 21.14 46.9979 20.9316C46.7251 20.7233 46.3937 20.6191 46.0036 20.6191C45.6058 20.6191 45.2706 20.7271 44.9979 20.943C44.7251 21.1589 44.5187 21.4581 44.3786 21.8407C44.2384 22.2233 44.1683 22.6665 44.1683 23.1703C44.1683 23.6778 44.2384 24.1267 44.3786 24.5169C44.5225 24.9032 44.7289 25.2063 44.9979 25.426C45.2706 25.6419 45.6058 25.7498 46.0036 25.7498ZM56.1697 27.7044C55.272 27.7044 54.4993 27.5225 53.8516 27.1589C53.2076 26.7915 52.7114 26.2725 52.3629 25.6021C52.0144 24.9278 51.8402 24.1305 51.8402 23.21C51.8402 22.3123 52.0144 21.5244 52.3629 20.8464C52.7114 20.1684 53.2019 19.64 53.8345 19.2612C54.4709 18.8824 55.2171 18.693 56.0732 18.693C56.6489 18.693 57.1849 18.7858 57.6811 18.9714C58.1811 19.1532 58.6167 19.4278 58.9879 19.7953C59.3629 20.1627 59.6546 20.6248 59.8629 21.1816C60.0713 21.7347 60.1754 22.3824 60.1754 23.1248V23.7896H52.8061V22.2896H57.897C57.897 21.9411 57.8213 21.6324 57.6697 21.3635C57.5182 21.0945 57.308 20.8843 57.0391 20.7328C56.7739 20.5775 56.4652 20.4998 56.1129 20.4998C55.7455 20.4998 55.4197 20.585 55.1357 20.7555C54.8554 20.9222 54.6357 21.1475 54.4766 21.4316C54.3175 21.7119 54.236 22.0244 54.2322 22.3691V23.7953C54.2322 24.2271 54.3118 24.6002 54.4709 24.9146C54.6338 25.229 54.8629 25.4714 55.1584 25.6419C55.4538 25.8123 55.8042 25.8975 56.2095 25.8975C56.4785 25.8975 56.7247 25.8597 56.9482 25.7839C57.1716 25.7081 57.3629 25.5945 57.522 25.443C57.6811 25.2915 57.8023 25.1059 57.8857 24.8862L60.1243 25.0339C60.0107 25.5718 59.7777 26.0415 59.4254 26.443C59.0769 26.8407 58.6262 27.1513 58.0732 27.3748C57.5239 27.5945 56.8894 27.7044 56.1697 27.7044Z" fill="black"/>
<path d="M92.3155 22.0339L87.0507 27.2987L85.9902 26.2382L90.187 22.0339L85.9902 17.8295L87.0507 16.7691L92.3155 22.0339ZM69.752 22.0339L75.0168 16.7691L76.0773 17.8295L71.8804 22.0339L76.0773 26.2382L75.0168 27.2987L69.752 22.0339ZM78.3411 29.167L82.2672 14.5127L83.7203 14.9015L79.7942 29.5551L78.3411 29.167Z" fill="black"/>
<rect x="0.5" y="0.5" width="112" height="44" rx="6.5" stroke="black"/>
</svg>
