<svg width="139" height="45" viewBox="0 0 139 45" fill="none" xmlns="http://www.w3.org/2000/svg">
<path d="M23.1754 27.5339V15.8975H27.7663C28.6489 15.8975 29.4008 16.0661 30.022 16.4032C30.6432 16.7366 31.1167 17.2006 31.4425 17.7953C31.772 18.3862 31.9368 19.068 31.9368 19.8407C31.9368 20.6135 31.7701 21.2953 31.4368 21.8862C31.1035 22.4771 30.6205 22.9373 29.9879 23.2669C29.3591 23.5964 28.5978 23.7612 27.7038 23.7612H24.7777V21.7896H27.3061C27.7796 21.7896 28.1697 21.7081 28.4766 21.5453C28.7872 21.3786 29.0182 21.1494 29.1697 20.8578C29.325 20.5623 29.4027 20.2233 29.4027 19.8407C29.4027 19.4544 29.325 19.1172 29.1697 18.8294C29.0182 18.5377 28.7872 18.3123 28.4766 18.1532C28.166 17.9903 27.772 17.9089 27.2947 17.9089H25.6357V27.5339H23.1754ZM33.4893 27.5339V18.8066H35.8359V20.3294H35.9268C36.0859 19.7877 36.353 19.3786 36.728 19.1021C37.103 18.8218 37.5348 18.6816 38.0234 18.6816C38.1446 18.6816 38.2753 18.6892 38.4155 18.7044C38.5556 18.7195 38.6787 18.7403 38.7848 18.7669V20.9146C38.6712 20.8805 38.514 20.8502 38.3132 20.8237C38.1125 20.7972 37.9287 20.7839 37.7621 20.7839C37.406 20.7839 37.0878 20.8616 36.8075 21.0169C36.531 21.1684 36.3113 21.3805 36.1484 21.6532C35.9893 21.926 35.9098 22.2403 35.9098 22.5964V27.5339H33.4893ZM43.6072 27.7044C42.7095 27.7044 41.9368 27.5225 41.2891 27.1589C40.6451 26.7915 40.1489 26.2725 39.8004 25.6021C39.4519 24.9278 39.2777 24.1305 39.2777 23.21C39.2777 22.3123 39.4519 21.5244 39.8004 20.8464C40.1489 20.1684 40.6394 19.64 41.272 19.2612C41.9084 18.8824 42.6546 18.693 43.5107 18.693C44.0864 18.693 44.6224 18.7858 45.1186 18.9714C45.6186 19.1532 46.0542 19.4278 46.4254 19.7953C46.8004 20.1627 47.0921 20.6248 47.3004 21.1816C47.5088 21.7347 47.6129 22.3824 47.6129 23.1248V23.7896H40.2436V22.2896H45.3345C45.3345 21.9411 45.2588 21.6324 45.1072 21.3635C44.9557 21.0945 44.7455 20.8843 44.4766 20.7328C44.2114 20.5775 43.9027 20.4998 43.5504 20.4998C43.183 20.4998 42.8572 20.585 42.5732 20.7555C42.2929 20.9222 42.0732 21.1475 41.9141 21.4316C41.755 21.7119 41.6735 22.0244 41.6697 22.3691V23.7953C41.6697 24.2271 41.7493 24.6002 41.9084 24.9146C42.0713 25.229 42.3004 25.4714 42.5959 25.6419C42.8913 25.8123 43.2417 25.8975 43.647 25.8975C43.916 25.8975 44.1622 25.8597 44.3857 25.7839C44.6091 25.7081 44.8004 25.5945 44.9595 25.443C45.1186 25.2915 45.2398 25.1059 45.3232 24.8862L47.5618 25.0339C47.4482 25.5718 47.2152 26.0415 46.8629 26.443C46.5144 26.8407 46.0637 27.1513 45.5107 27.3748C44.9614 27.5945 44.3269 27.7044 43.6072 27.7044ZM57.0945 18.8066L54.0433 27.5339H51.3161L48.2649 18.8066H50.8217L52.6342 25.051H52.7251L54.532 18.8066H57.0945ZM58.3331 27.5339V18.8066H60.7536V27.5339H58.3331ZM59.549 17.6816C59.1892 17.6816 58.8804 17.5623 58.6229 17.3237C58.3691 17.0813 58.2422 16.7915 58.2422 16.4544C58.2422 16.121 58.3691 15.835 58.6229 15.5964C58.8804 15.354 59.1892 15.2328 59.549 15.2328C59.9089 15.2328 60.2157 15.354 60.4695 15.5964C60.727 15.835 60.8558 16.121 60.8558 16.4544C60.8558 16.7915 60.727 17.0813 60.4695 17.3237C60.2157 17.5623 59.9089 17.6816 59.549 17.6816ZM66.6697 27.7044C65.772 27.7044 64.9993 27.5225 64.3516 27.1589C63.7076 26.7915 63.2114 26.2725 62.8629 25.6021C62.5144 24.9278 62.3402 24.1305 62.3402 23.21C62.3402 22.3123 62.5144 21.5244 62.8629 20.8464C63.2114 20.1684 63.7019 19.64 64.3345 19.2612C64.9709 18.8824 65.7171 18.693 66.5732 18.693C67.1489 18.693 67.6849 18.7858 68.1811 18.9714C68.6811 19.1532 69.1167 19.4278 69.4879 19.7953C69.8629 20.1627 70.1546 20.6248 70.3629 21.1816C70.5713 21.7347 70.6754 22.3824 70.6754 23.1248V23.7896H63.3061V22.2896H68.397C68.397 21.9411 68.3213 21.6324 68.1697 21.3635C68.0182 21.0945 67.808 20.8843 67.5391 20.7328C67.2739 20.5775 66.9652 20.4998 66.6129 20.4998C66.2455 20.4998 65.9197 20.585 65.6357 20.7555C65.3554 20.9222 65.1357 21.1475 64.9766 21.4316C64.8175 21.7119 64.736 22.0244 64.7322 22.3691V23.7953C64.7322 24.2271 64.8118 24.6002 64.9709 24.9146C65.1338 25.229 65.3629 25.4714 65.6584 25.6419C65.9538 25.8123 66.3042 25.8975 66.7095 25.8975C66.9785 25.8975 67.2247 25.8597 67.4482 25.7839C67.6716 25.7081 67.8629 25.5945 68.022 25.443C68.1811 25.2915 68.3023 25.1059 68.3857 24.8862L70.6243 25.0339C70.5107 25.5718 70.2777 26.0415 69.9254 26.443C69.5769 26.8407 69.1262 27.1513 68.5732 27.3748C68.0239 27.5945 67.3894 27.7044 66.6697 27.7044ZM73.9141 27.5339L71.5391 18.8066H73.9879L75.3402 24.6703H75.4197L76.8288 18.8066H79.2322L80.6641 24.6362H80.7379L82.0675 18.8066H84.5107L82.1413 27.5339H79.5788L78.0788 22.0453H77.9709L76.4709 27.5339H73.9141Z" fill="black"/>
<path d="M116.316 22.0339L111.051 27.2987L109.99 26.2382L114.187 22.0339L109.99 17.8295L111.051 16.7691L116.316 22.0339ZM93.752 22.0339L99.0168 16.7691L100.077 17.8295L95.8804 22.0339L100.077 26.2382L99.0168 27.2987L93.752 22.0339ZM102.341 29.167L106.267 14.5127L107.72 14.9015L103.794 29.5551L102.341 29.167Z" fill="black"/>
<rect x="0.5" y="0.5" width="138" height="44" rx="6.5" stroke="black"/>
</svg>
